<svg version="1.1" id="Layer_1" xmlns="http://www.w3.org/2000/svg" xmlns:xlink="http://www.w3.org/1999/xlink" x="0px" y="0px"
	 width="100%" viewBox="0 0 1024 1024" enable-background="new 0 0 1024 1024" xml:space="preserve">
<path fill="#000000" opacity="1.000000" stroke="none" 
	d="
M542.054688,308.099182 
	C552.442749,302.921509 556.813416,293.128387 562.305115,284.244873 
	C567.662842,275.578094 571.153687,265.976471 576.066589,257.086334 
	C576.921631,255.539032 577.095276,253.601028 577.505798,251.825470 
	C578.154968,249.017517 577.192200,247.243652 574.155273,246.976181 
	C571.048706,246.702545 568.276306,245.255814 567.770142,242.290268 
	C567.203552,238.971008 570.082031,236.758759 572.662842,235.369843 
	C577.965393,232.516098 582.662598,228.825958 587.669495,225.658066 
	C585.672424,220.238556 582.963928,219.387070 579.096008,222.928680 
	C575.699646,226.038452 571.908752,228.297607 567.312683,229.008224 
	C564.602966,229.427185 562.143982,230.617203 559.998474,232.106003 
	C554.716736,235.770981 550.396057,233.974167 545.997742,230.480606 
	C540.962524,226.481125 536.362427,221.740189 528.821411,220.114090 
	C531.613647,214.828888 535.516602,210.938293 540.007507,208.177383 
	C554.301270,199.389832 569.564087,193.279877 586.813477,195.910370 
	C598.523926,197.696182 609.632751,201.730240 619.908386,207.647522 
	C623.967346,209.984924 622.472839,213.677063 620.534607,216.832397 
	C614.345032,226.908768 607.971069,236.872986 601.862976,246.998016 
	C581.645325,280.511993 561.520996,314.082275 541.331909,347.613556 
	C539.818787,350.126709 538.937622,352.709686 539.348083,355.665161 
	C541.556946,371.568787 525.968018,386.305603 510.688568,381.554626 
	C507.346100,380.515350 506.403656,383.267090 505.278503,385.464508 
	C496.569672,402.472351 490.672974,420.398834 487.254333,439.210297 
	C484.229523,455.854767 483.648651,472.597656 484.129211,489.440674 
	C484.415283,499.467834 483.244629,501.101715 473.873749,504.428558 
	C430.877228,519.692993 393.214813,543.798279 359.068420,573.714539 
	C348.541626,582.937195 338.248291,592.413635 328.443359,602.413513 
	C323.358276,607.599731 319.232666,608.530640 314.269135,605.894836 
	C309.678772,603.457214 307.613831,597.956177 309.119354,591.504456 
	C311.349060,581.949341 313.844543,572.455627 316.027985,562.890381 
	C322.400055,534.975830 326.953949,506.799408 328.942444,478.189941 
	C330.322235,458.337891 329.963287,438.629974 326.982330,418.954437 
	C325.869629,411.610199 327.545227,408.491241 334.555176,405.082184 
	C369.163300,388.251617 396.845978,363.811218 416.845703,330.789154 
	C418.850952,327.478241 419.506836,325.191528 416.785004,321.587250 
	C408.604309,310.754211 413.296204,294.437714 425.819885,289.426819 
	C429.016724,288.147766 431.010956,286.296509 432.645294,283.400665 
	C458.596619,237.418121 484.620056,191.476303 510.629883,145.526779 
	C513.096008,141.170044 515.807007,136.979828 519.063049,133.158813 
	C522.655212,128.943253 527.099487,126.243690 532.613831,125.353363 
	C541.815918,123.867615 548.846924,131.603073 546.650635,140.659515 
	C543.605225,153.217346 536.258301,163.657181 530.083435,174.665680 
	C520.191406,192.301086 514.450562,210.971954 515.301208,231.393387 
	C515.461304,235.237976 515.509583,239.123764 517.705383,242.455597 
	C519.611084,245.347321 517.152039,248.073456 517.909180,251.155701 
	C521.380127,265.285004 527.334106,278.526520 531.884216,292.258667 
	C533.297668,296.524384 534.747192,300.779053 536.088379,305.067505 
	C536.993347,307.961060 538.671997,309.249115 542.054688,308.099182 
M422.074341,420.635956 
	C426.160370,413.184265 430.799622,406.101257 435.727295,399.170319 
	C437.967133,396.019989 441.005951,394.900116 443.842285,396.134583 
	C446.764343,397.406342 446.072937,400.931610 445.432678,403.755280 
	C445.323120,404.238495 445.083466,404.690979 444.922791,405.164062 
	C442.006775,413.750641 445.467743,421.264465 449.336884,428.463562 
	C451.260834,432.043335 454.255768,431.410828 455.765564,427.590912 
	C456.253815,426.355591 456.617767,425.063141 456.943604,423.772888 
	C460.434174,409.951599 466.584869,397.197296 472.750488,384.455231 
	C473.747803,382.394073 474.594543,380.008728 477.358765,379.057739 
	C477.819427,381.668671 476.747528,383.460358 476.099426,385.287720 
	C471.027924,399.587494 467.070496,414.198425 463.822083,429.004547 
	C463.328125,431.255890 463.046234,433.640656 463.208374,435.925262 
	C463.379944,438.343170 465.388763,439.510406 466.843201,437.356995 
	C469.798401,432.981506 474.070404,429.345673 475.538544,424.107849 
	C480.226288,407.383209 486.220184,391.189362 494.171661,375.723572 
	C497.680786,368.898224 497.441040,367.287903 491.664551,362.419281 
	C476.396210,349.550507 459.725647,338.997650 440.779968,332.301819 
	C433.719299,329.806458 433.767822,329.768127 429.932678,336.203979 
	C410.118927,369.453918 383.703552,395.819305 349.102203,413.635223 
	C342.013580,417.285065 341.472809,418.349609 342.496735,426.184052 
	C343.553955,434.273010 344.132111,442.403442 344.246338,450.557465 
	C344.681915,481.641235 340.610657,512.274536 334.937805,542.744141 
	C334.604034,544.536743 333.675385,546.419067 335.332031,548.082581 
	C336.863312,547.261780 336.782532,545.940613 337.084686,544.876221 
	C339.857330,535.109070 342.095703,525.222961 344.194244,515.281982 
	C350.282410,486.441742 352.597626,457.313019 351.515198,427.905975 
	C351.391174,424.536835 352.325134,422.678131 355.176453,421.154266 
	C364.898834,415.958221 373.880554,409.635803 382.617493,402.925934 
	C401.137878,388.702576 416.677979,371.631104 430.760895,353.126984 
	C431.859009,351.684143 432.615387,349.429321 435.942200,350.108826 
	C434.348694,356.298828 430.660400,361.219818 427.365540,366.247101 
	C412.010773,389.675385 392.576569,409.146027 369.486481,424.941833 
	C364.234344,428.534760 362.553833,433.023926 362.660706,439.349457 
	C362.834534,449.640961 363.496735,460.204956 361.131744,470.202820 
	C356.192902,491.081451 351.608856,512.084412 344.824554,532.496338 
	C344.146637,534.536072 342.718414,536.634827 343.733246,538.941772 
	C345.353333,539.222961 345.745392,538.118103 346.228210,537.330994 
	C360.510834,514.046997 374.400024,490.530121 387.984283,466.831879 
	C389.279694,464.572021 389.095581,462.627533 388.204803,460.243591 
	C385.475525,452.939514 385.532623,445.663605 390.971344,439.592529 
	C395.977905,434.003815 402.501160,431.735718 409.959076,433.839020 
	C412.714569,434.616180 414.206573,433.593811 415.949707,431.738525 
	C418.796539,428.708466 419.471069,424.582428 422.074341,420.635956 
M472.022736,242.470596 
	C463.437683,257.815338 454.245667,272.830109 446.317261,288.414795 
	C448.668488,290.792084 451.285095,291.173798 453.640015,291.367401 
	C457.511078,291.685669 457.878265,286.571533 461.368652,285.580872 
	C463.481567,287.381744 465.728149,288.823364 468.386993,289.943451 
	C473.251709,291.992737 476.571655,297.350555 482.792603,296.753418 
	C483.058411,296.727875 483.321075,297.613586 483.718018,297.865723 
	C488.500275,300.903717 490.113617,307.208801 495.824005,309.369904 
	C499.124390,310.618866 501.766174,312.980377 504.083069,315.677002 
	C506.206146,318.148010 509.069519,319.434479 512.032837,320.670441 
	C514.582703,321.733917 516.325562,321.192596 518.291077,319.382629 
	C523.074341,314.978027 523.853760,309.858917 521.885925,303.912720 
	C516.865601,288.742859 510.446686,274.056061 506.272919,258.593964 
	C505.363342,255.224319 504.642273,251.748367 503.254730,248.574814 
	C500.416504,242.083328 495.961914,240.838669 490.127960,244.537888 
	C486.872528,246.602097 483.650879,248.719574 480.234253,250.929291 
	C479.057709,247.897202 480.491241,246.059814 481.443634,244.230896 
	C487.442230,232.711868 493.130554,221.005341 499.690186,209.811279 
	C506.890381,197.524017 509.739502,183.363098 517.210754,171.234451 
	C522.098633,163.299530 527.082886,155.392014 530.906128,146.855515 
	C531.726624,145.023453 533.448486,143.241013 532.122314,140.986343 
	C531.020203,140.630859 530.186279,141.157608 529.799072,141.789597 
	C509.703979,174.587616 491.833191,208.663651 472.022736,242.470596 
M506.010193,336.494537 
	C488.704712,321.364624 469.041138,310.510620 446.979828,304.046875 
	C442.333740,302.685669 437.571808,301.823547 432.694794,302.235748 
	C429.350525,302.518372 427.705841,304.703644 427.283722,307.812897 
	C426.930603,310.413574 427.291321,312.760956 430.127045,314.080902 
	C433.220154,315.520691 434.734680,313.777618 436.185822,311.503723 
	C438.647888,307.645691 442.251343,307.886047 445.948425,309.048615 
	C455.819580,312.152802 465.319153,316.159515 474.398132,321.132965 
	C478.932678,323.616882 483.420685,326.185791 488.395966,328.977905 
	C484.963470,330.983612 482.587372,329.606445 480.142365,328.713257 
	C478.570221,328.138947 476.709229,327.484711 475.668243,329.338318 
	C474.571045,331.292023 475.751434,332.604797 477.426056,333.863434 
	C483.938538,338.758331 490.341797,343.799011 496.766876,348.809601 
	C499.655518,351.062286 502.388153,353.533081 505.393127,355.613800 
	C508.935059,358.066437 513.576538,357.310455 516.312195,354.449677 
	C519.805054,350.796997 517.396851,348.004822 515.040466,345.396423 
	C512.369873,342.440155 509.378052,339.774048 506.010193,336.494537 
M604.688965,204.774475 
	C603.330139,204.009567 601.957031,204.020004 601.425049,205.602768 
	C600.738831,207.644562 600.511353,209.803864 603.029358,211.337936 
	C605.585144,209.938400 606.429688,208.018463 604.688965,204.774475 
z"/>
<path fill="#000000" opacity="1.000000" stroke="none" 
	d="
M684.198242,398.940979 
	C686.528809,396.283142 688.692871,393.985016 690.926331,391.756470 
	C691.355347,391.328400 692.056824,391.173431 692.595398,390.910645 
	C694.757202,392.458191 694.196167,394.631256 694.198853,396.519684 
	C694.255493,436.010895 694.274048,475.502197 694.260071,514.993469 
	C694.257629,521.965332 691.823730,523.684326 684.953735,522.826416 
	C640.226746,517.240662 597.872070,522.778198 560.278931,549.978333 
	C557.237366,552.178955 554.461243,554.746399 551.133972,557.497070 
	C554.000854,558.325073 555.489807,557.044373 557.003967,556.210205 
	C581.528320,542.699707 607.975220,536.539978 635.744690,534.498352 
	C657.022888,532.933899 677.954468,534.551331 698.820190,538.394531 
	C705.405701,539.607605 706.890930,538.441223 706.893860,531.611816 
	C706.916077,479.956299 706.904724,428.300781 706.947144,376.645294 
	C706.949280,374.060150 705.981445,370.928894 708.512207,369.141693 
	C712.957886,366.002197 716.761047,361.663452 722.319641,360.444183 
	C724.995239,359.857330 726.736450,361.796082 727.331604,364.306519 
	C728.446777,369.011047 730.487366,372.023987 735.931824,373.026825 
	C740.888916,373.939911 741.853271,378.899872 742.109741,383.365784 
	C742.338623,387.351776 742.162842,391.361084 742.163208,395.360107 
	C742.168701,455.347229 742.173767,515.334351 742.179016,575.321472 
	C742.179993,586.232666 737.245850,589.829712 726.961609,586.270020 
	C692.634094,574.388245 657.157898,570.946594 621.144043,572.518738 
	C600.585754,573.416199 580.502136,577.254883 561.683716,586.206970 
	C555.477600,589.159180 549.789307,592.856018 544.355286,597.044006 
	C528.459045,609.295166 511.718536,609.069946 495.864471,596.626465 
	C479.532257,583.807678 460.399841,577.745667 440.322937,574.459778 
	C422.340088,571.516724 404.175934,571.717651 386.025970,572.937439 
	C384.400391,573.046570 382.709900,573.474792 381.133698,572.520874 
	C380.399689,570.483276 382.221741,569.926880 383.253815,569.072021 
	C396.628479,557.994629 410.939240,548.265259 425.875763,539.419434 
	C429.116302,537.500305 432.185150,537.183289 435.857025,538.027527 
	C450.209473,541.327148 463.855103,546.562805 477.272156,552.494141 
	C478.168732,552.890503 479.042084,553.469482 480.377289,552.922729 
	C481.443817,550.522827 479.408234,549.549011 477.928894,548.410034 
	C469.546173,541.955872 460.104340,537.403625 450.488678,533.154785 
	C448.739197,532.381775 446.579987,532.158630 445.331879,529.663086 
	C449.044312,526.862671 453.127014,524.891785 457.658844,523.858459 
	C458.569885,523.650818 459.906433,523.576660 460.525391,524.080872 
	C469.719849,531.572205 480.929840,535.957031 490.119690,543.475037 
	C496.983124,549.089905 503.256531,555.247681 509.046082,561.939758 
	C510.194489,563.267212 511.302887,565.296692 513.468079,564.456970 
	C515.385925,563.713074 514.898315,561.624329 514.892883,560.026611 
	C514.766846,523.204529 514.577087,486.382660 514.475342,449.560516 
	C514.453247,441.566254 514.715454,433.571014 514.864624,425.576569 
	C514.912903,422.988892 514.929932,420.693176 518.723572,420.578033 
	C522.391479,420.466675 521.260925,415.427155 525.407043,413.587250 
	C526.940125,464.687286 524.554626,515.219055 525.579163,565.600464 
	C529.026306,566.098755 529.851196,563.895813 531.074097,562.491943 
	C557.578186,532.065369 591.740356,516.723022 631.102905,511.564148 
	C646.355957,509.565063 661.623108,509.352081 676.944397,510.765045 
	C683.160522,511.338348 683.696960,510.693604 683.696350,504.730560 
	C683.693909,479.069580 683.906372,453.404816 683.509033,427.749634 
	C683.361877,418.247162 683.318359,408.790344 684.198242,398.940979 
z"/>
<path fill="#000000" opacity="1.000000" stroke="none" 
	d="
M646.653503,409.788666 
	C635.378723,414.953003 623.742126,418.004852 612.483704,422.109222 
	C607.450317,423.944214 602.655640,426.226990 597.979431,428.791382 
	C590.615601,432.829651 585.006042,438.419922 581.452209,446.218506 
	C577.238098,455.466064 573.019775,464.702972 569.322449,474.170319 
	C567.776672,478.128357 565.487671,481.585175 562.227539,484.292908 
	C560.072449,486.082794 558.314331,485.994934 557.664978,482.724823 
	C556.676331,477.746002 556.457153,472.892944 558.300964,467.980011 
	C562.512817,456.757324 566.091003,445.277130 570.741943,434.245300 
	C574.400024,425.568298 571.515381,417.493927 570.048889,409.289825 
	C565.232361,382.344360 566.627319,356.235046 579.605774,331.536224 
	C581.302979,328.306274 583.464294,325.315979 585.482422,322.262115 
	C585.910889,321.613678 586.653259,321.172577 587.644165,320.282959 
	C590.907410,324.737122 589.670471,330.482117 593.374695,335.051178 
	C597.638184,300.579193 617.518066,276.342834 643.403198,255.611679 
	C646.560364,259.012451 643.720947,263.315826 646.070129,266.233826 
	C647.974915,266.433075 648.580688,265.071838 649.136719,263.946686 
	C658.408569,245.185425 674.456299,233.385406 691.526978,222.653961 
	C707.918091,212.349731 724.000366,201.679550 737.240784,187.287354 
	C749.529785,173.929398 758.521973,158.790863 762.869934,141.050171 
	C763.516724,138.411041 764.266235,135.624069 767.512207,135.240707 
	C771.038696,134.824234 772.952332,137.071304 774.268494,140.052582 
	C781.587769,156.632095 786.112061,173.830460 787.602783,191.997742 
	C789.211731,211.603821 787.038147,230.561737 780.187317,248.900589 
	C772.682434,268.990356 758.773071,283.937103 741.181030,295.737244 
	C739.748291,296.698212 737.750488,297.152954 737.142700,299.895020 
	C744.394104,299.849945 749.986816,295.374573 757.960815,293.248169 
	C749.912170,314.527771 737.796631,331.502502 721.955505,345.998016 
	C705.927734,360.664276 686.188843,368.398468 665.977722,375.449158 
	C672.258667,377.905975 678.604126,376.129700 685.985413,377.106750 
	C675.303101,391.662872 662.331909,402.017181 646.653503,409.788666 
M657.113281,327.610199 
	C634.774414,351.581299 614.872253,377.316833 599.859192,406.645172 
	C628.639038,364.933624 662.478027,327.756744 699.496643,292.924438 
	C701.994202,296.395752 701.792297,299.417969 700.287109,302.847504 
	C703.130981,301.817627 705.052795,300.357056 707.465820,300.252441 
	C717.751282,299.806488 723.821533,291.576782 731.875305,287.007751 
	C736.383240,275.954407 748.798157,273.134949 755.646973,264.260254 
	C758.445801,260.633453 762.690247,257.843781 765.088379,253.589249 
	C774.106750,237.589417 777.152771,221.045044 769.487732,203.580994 
	C767.248230,198.478592 767.045593,192.905167 765.639404,187.614120 
	C765.123169,185.671509 764.531738,183.663818 762.129395,183.219238 
	C759.744507,182.777863 758.458801,184.194122 757.393372,186.065994 
	C756.304016,187.980042 754.745239,190.321854 752.868103,190.483124 
	C748.568237,190.852539 746.863892,194.170044 744.299377,196.551376 
	C740.516602,200.063995 736.891479,203.753250 733.011658,207.153259 
	C718.911682,219.509430 702.544556,228.632477 687.121460,239.100250 
	C677.069580,245.922546 668.538696,254.195877 661.917847,264.414093 
	C654.826355,275.358582 651.623474,287.789337 648.145630,300.123688 
	C647.079956,303.903076 646.526978,307.995087 642.426392,310.587677 
	C639.995483,306.441376 637.434570,308.147675 634.676453,310.205902 
	C633.000427,311.456635 631.657471,313.772858 629.224670,313.321686 
	C625.979370,312.719788 624.363708,314.491791 622.641357,316.704773 
	C620.900879,318.940979 618.793030,320.803467 615.314697,319.897064 
	C614.931213,315.764587 615.376465,311.920197 617.556152,308.721405 
	C622.148315,301.982147 625.826843,294.649628 630.963928,288.266388 
	C632.006653,286.970734 633.757629,285.590210 631.756653,283.377777 
	C628.955322,284.007202 627.507324,286.369202 625.837036,288.307129 
	C612.749023,303.491943 606.977112,321.631439 604.155334,341.106628 
	C603.166138,347.934265 603.194824,354.218567 606.938110,360.125519 
	C612.699585,359.110046 617.221069,356.990753 618.299683,350.605316 
	C618.536621,349.202850 619.493713,347.845306 620.358521,346.638672 
	C624.519409,340.833038 628.944214,335.224976 631.628662,328.471771 
	C632.575928,326.088806 634.768433,324.811493 637.337463,324.027740 
	C643.383972,322.183044 648.805054,318.797424 652.284973,313.700470 
	C656.710266,307.218994 662.892944,302.801727 668.526184,297.756683 
	C675.370483,291.626953 676.404175,281.262054 670.261108,274.753601 
	C664.601990,268.757904 664.599243,268.755737 669.807251,262.146484 
	C670.425293,261.362244 671.052979,260.578613 671.744080,259.859985 
	C683.309326,247.833206 697.383728,239.189713 711.656921,230.961594 
	C717.873352,227.377991 722.645691,230.787979 722.672485,237.786636 
	C722.674133,238.228683 723.053223,238.669266 723.369019,239.353973 
	C733.684265,237.958801 739.098694,230.150085 745.102112,221.729324 
	C745.890747,225.940231 744.663086,228.375916 743.422485,230.880585 
	C735.011963,247.860062 722.212280,261.461029 709.410339,275.039734 
	C692.611145,292.858185 673.877197,308.756165 657.113281,327.610199 
M681.994995,323.519653 
	C682.666016,325.041901 683.324463,326.569855 684.010315,328.085388 
	C686.218262,332.964294 689.292297,336.197266 695.264832,334.120331 
	C696.021667,333.857147 696.945007,333.821442 697.741638,333.961792 
	C708.940979,335.934753 716.091431,328.955658 723.359680,322.338623 
	C724.845093,320.986328 727.123840,319.766510 725.829651,316.984406 
	C724.616211,314.375641 722.313782,314.381958 719.922974,314.221527 
	C712.795715,313.743195 705.682251,312.811340 698.553894,312.706970 
	C695.287292,312.659088 692.589294,311.210968 689.610107,310.800140 
	C687.299011,310.481445 681.561584,319.805298 681.994995,323.519653 
M579.325195,369.757019 
	C578.767883,377.671906 576.833374,385.679382 580.646729,394.044067 
	C584.951050,391.598480 586.336060,385.276367 592.252441,387.264954 
	C593.151794,382.824432 596.352051,380.499390 598.873718,377.688324 
	C600.840515,375.495880 602.030701,373.094482 599.538635,370.707825 
	C596.858826,368.141357 593.660583,366.377075 589.732971,366.452820 
	C584.213257,366.559296 583.423340,365.516632 584.332275,360.144714 
	C584.744324,357.709656 586.609436,355.301361 584.564270,351.777985 
	C580.423950,357.243591 580.746033,363.339539 579.325195,369.757019 
M709.446899,253.513031 
	C702.808411,256.336578 700.048279,259.821686 700.239502,265.395935 
	C704.906250,264.118378 707.989929,261.024384 710.340576,257.118317 
	C711.002380,256.018585 712.324463,254.505798 709.446899,253.513031 
z"/>
<path fill="#000000" opacity="1.000000" stroke="none" 
	d="
M354.960205,294.858582 
	C345.089447,310.761963 330.335876,318.513550 312.829956,321.106720 
	C298.811279,323.183350 289.899750,330.972198 284.429260,343.388947 
	C280.231354,352.917236 278.368195,363.062622 277.282562,373.366730 
	C277.021118,375.848480 276.781647,378.341919 276.324371,380.791229 
	C275.781921,383.696655 273.734863,385.104004 270.920746,384.873077 
	C267.943359,384.628723 266.679932,382.607147 266.671844,379.693604 
	C266.642456,369.125122 268.244812,358.686523 271.188904,348.663177 
	C275.551392,333.810760 273.563995,320.725952 265.859558,307.117645 
	C253.147324,284.664001 257.277740,262.197723 269.548676,240.643097 
	C269.788177,240.222382 270.178284,239.869751 270.553345,239.550186 
	C270.795593,239.343765 271.138672,239.255737 272.014526,238.840942 
	C289.518890,256.499664 291.581604,277.995697 286.573883,301.299286 
	C289.272339,301.014984 289.489990,299.306366 290.038239,298.104431 
	C295.313446,286.538818 301.967987,275.757172 309.121185,265.313202 
	C315.249512,256.365601 317.232361,246.958649 314.653961,236.405533 
	C308.180298,209.909805 318.204681,189.204315 337.641083,171.904297 
	C338.610443,171.041489 339.563507,169.998535 341.888031,170.332535 
	C349.623657,190.446579 348.860870,210.197311 338.374359,229.895187 
	C339.213806,229.349716 340.089691,228.851913 340.882416,228.245377 
	C341.673920,227.639740 342.401825,226.945862 343.123962,226.255432 
	C353.745300,216.100479 365.160400,206.927155 377.329742,198.698746 
	C382.221436,195.391159 386.211212,191.377289 389.485138,186.360214 
	C405.660461,161.572388 429.377930,154.909882 457.318787,158.554398 
	C461.471191,159.096008 461.873077,160.593719 460.098694,164.107773 
	C448.477875,187.122086 430.646912,200.797134 404.163696,201.039078 
	C396.333740,201.110611 389.546234,203.164612 383.065430,207.425598 
	C373.705933,213.579208 364.964386,220.469391 356.735138,228.033966 
	C355.819489,228.875687 354.570953,229.592758 354.434143,231.666565 
	C358.549652,229.718369 362.314484,227.715729 366.242706,226.113724 
	C386.273712,217.944595 405.671570,220.475235 424.628113,229.787430 
	C428.033020,231.460052 427.387207,233.306061 425.069275,235.470749 
	C408.614136,250.838181 389.618652,256.595795 367.540314,250.767654 
	C365.447876,250.215317 363.274506,249.799774 361.321625,248.916321 
	C349.317841,243.485916 339.630829,248.211349 330.703979,255.887878 
	C325.108032,260.700012 320.764984,266.633423 316.654816,272.727814 
	C308.445709,284.899841 301.234192,297.608582 296.475311,311.853821 
	C298.048401,309.743500 299.768677,307.726257 301.171539,305.508270 
	C313.325104,286.293152 331.750305,277.986664 353.461700,275.734802 
	C363.917664,274.650299 364.175812,275.261566 359.867828,285.182831 
	C358.477844,288.384064 356.733582,291.431458 354.960205,294.858582 
z"/>
<path fill="#000000" opacity="1.000000" stroke="none" 
	d="
M683.985718,847.208679 
	C664.155396,847.204956 644.821594,847.101501 625.490234,847.272644 
	C621.218201,847.310425 619.619507,846.075256 619.633240,841.612122 
	C619.766846,798.113525 619.762390,754.614136 619.662048,711.115417 
	C619.652649,707.042236 620.915894,705.583435 625.087280,705.614197 
	C647.085632,705.776672 669.086853,705.572021 691.084595,705.771118 
	C699.504578,705.847290 707.600098,708.019958 715.039551,712.030396 
	C734.777954,722.671021 738.482483,753.884827 721.936523,769.355957 
	C720.869141,770.353943 719.365845,770.969299 718.939880,772.731262 
	C720.242798,774.963257 722.847778,775.600525 724.782898,777.090332 
	C738.665649,787.779236 741.701294,802.218872 738.077576,818.261658 
	C734.503662,834.084534 722.940674,841.947205 707.817871,845.140442 
	C700.153931,846.758728 692.339966,847.403320 683.985718,847.208679 
M693.994690,822.721924 
	C701.706909,821.265930 708.573975,818.603088 710.704407,809.952759 
	C713.525574,798.497559 707.975220,789.367126 696.348694,787.428955 
	C680.825256,784.841187 665.110596,786.753113 649.485229,786.382385 
	C646.314331,786.307190 646.412170,788.811096 646.409851,791.021851 
	C646.400513,800.017212 646.564819,809.016479 646.342590,818.006287 
	C646.242920,822.038086 647.900696,823.086243 651.649597,823.185791 
	C665.473328,823.552612 679.281006,823.166687 693.994690,822.721924 
M697.005981,732.357727 
	C694.399353,730.743774 691.430359,729.733154 688.509338,729.671387 
	C675.536926,729.396973 662.557434,729.449524 649.580505,729.407654 
	C647.592957,729.401245 646.443665,730.433228 646.440063,732.467590 
	C646.424011,741.450134 646.433655,750.432739 646.450378,759.415283 
	C646.453979,761.367981 647.330505,762.656311 649.420898,762.612793 
	C663.042175,762.329651 676.709595,763.785889 690.280151,761.803345 
	C697.522095,760.745422 702.534241,756.796753 704.139526,749.355408 
	C705.633301,742.431152 703.082642,737.000000 697.005981,732.357727 
z"/>
<path fill="#000000" opacity="1.000000" stroke="none" 
	d="
M425.717194,736.000000 
	C425.718964,727.172180 425.852081,718.841309 425.663544,710.517822 
	C425.578735,706.773071 427.054230,705.614075 430.659424,705.634033 
	C451.811523,705.751038 472.968872,705.441833 494.116028,705.790344 
	C516.272583,706.155518 533.781738,719.125977 538.716309,738.402649 
	C543.983093,758.976807 537.042908,782.402466 515.567200,792.438477 
	C511.734344,794.229614 512.388306,796.257202 514.256775,799.043762 
	C523.438354,812.736938 532.551147,826.476501 541.650330,840.224670 
	C542.826050,842.001099 544.422607,843.582092 544.717224,845.899536 
	C543.471497,847.909241 541.444946,847.156555 539.753723,847.181091 
	C533.425964,847.272949 527.079346,846.930359 520.772217,847.301331 
	C516.045654,847.579346 513.166931,845.907532 510.596100,841.925720 
	C502.016357,828.637329 492.969513,815.651184 484.312836,802.411133 
	C482.327118,799.374084 480.075623,798.181519 476.524048,798.325317 
	C470.870483,798.554321 465.177704,798.698425 459.544495,798.288147 
	C454.328796,797.908264 453.032288,799.964111 453.159607,804.890198 
	C453.473602,817.040710 453.078766,829.209045 453.355957,841.361328 
	C453.463226,846.065735 451.755524,847.550415 447.263977,847.273560 
	C442.452118,846.976990 437.607788,847.203979 432.777618,847.209351 
	C425.738434,847.217163 425.719421,847.219727 425.718048,839.932312 
	C425.711670,805.454895 425.716553,770.977417 425.717194,736.000000 
M453.265106,753.500000 
	C453.267609,758.994629 453.408112,764.493896 453.221863,769.982117 
	C453.106323,773.387024 454.274292,774.838013 457.800781,774.706482 
	C462.788544,774.520508 467.789276,774.713257 472.783997,774.676025 
	C479.759857,774.624023 486.739380,775.020813 493.674591,773.630310 
	C505.614258,771.236389 513.492188,761.660034 512.632690,750.278259 
	C511.790985,739.132019 502.873932,730.728455 490.817169,730.347107 
	C479.838348,729.999939 468.841217,730.270264 457.853851,730.134094 
	C454.321259,730.090332 453.192047,731.728943 453.255646,735.018005 
	C453.368286,740.843201 453.272308,746.672546 453.265106,753.500000 
z"/>
<path fill="#000000" opacity="1.000000" stroke="none" 
	d="
M846.270386,814.189941 
	C827.191772,814.144226 808.535400,814.260986 789.882874,814.046997 
	C785.824341,814.000427 783.937683,815.508179 782.593201,819.142944 
	C779.591736,827.257263 776.131165,835.200745 773.043518,843.284790 
	C771.926575,846.209412 770.235657,847.357056 767.072266,847.282227 
	C759.164429,847.095032 751.249207,847.220459 743.655823,847.220459 
	C742.612122,844.284363 743.809692,842.723999 744.511292,841.098511 
	C762.719604,798.912720 781.075867,756.789978 799.041992,714.501404 
	C801.798584,708.012939 804.915100,704.379761 812.491943,705.475891 
	C816.704285,706.085327 821.131714,705.423523 825.441528,705.077576 
	C829.177673,704.777649 831.117432,706.369446 832.562683,709.773621 
	C841.019104,729.692261 849.624756,749.548096 858.261902,769.389404 
	C868.693604,793.353271 879.210083,817.280396 889.677734,841.228638 
	C890.329834,842.720520 891.369385,844.131042 890.840454,846.277405 
	C887.245667,848.096008 883.150757,846.510681 879.368958,847.254028 
	C866.468323,849.789795 858.691956,845.034668 855.738647,831.969788 
	C854.688660,827.324951 852.262878,822.981445 850.366943,818.542236 
	C849.607788,816.765015 849.163452,814.602478 846.270386,814.189941 
M826.419128,761.975098 
	C823.260620,754.403198 820.102112,746.831299 816.467041,738.116882 
	C809.344299,755.742493 802.722778,772.127869 795.786194,789.292969 
	C810.197021,789.292969 823.519531,789.292969 837.426025,789.292969 
	C834.684937,779.768982 830.239746,771.401245 826.419128,761.975098 
z"/>
<path fill="#000000" opacity="1.000000" stroke="none" 
	d="
M189.238525,750.565796 
	C195.287811,757.608765 203.576736,759.383789 211.566650,761.604004 
	C222.137497,764.541260 232.954208,766.537292 243.181030,770.754272 
	C258.736694,777.168518 267.831207,788.231628 267.848267,805.373718 
	C267.864471,821.677368 260.597717,834.163269 246.197662,842.146423 
	C234.314941,848.733948 221.534164,850.450439 208.074371,849.491150 
	C191.307693,848.296143 176.289261,842.736877 162.707245,833.026428 
	C160.815720,831.674072 159.134903,830.030823 157.300797,828.593323 
	C154.859222,826.679810 154.604355,824.787781 156.692413,822.297913 
	C160.330322,817.960022 163.880707,813.531372 167.185654,808.937805 
	C169.466354,805.767944 171.359756,806.127625 174.052521,808.417603 
	C186.108337,818.670288 199.823517,824.922485 215.934860,824.618835 
	C222.122543,824.502258 228.226746,823.450562 233.415771,819.595581 
	C241.671707,813.462036 241.771500,803.392822 233.533981,797.264465 
	C228.500793,793.519958 222.547653,791.816528 216.580811,790.209656 
	C205.826782,787.313354 194.834641,785.254578 184.494751,780.905396 
	C170.882965,775.179871 161.336929,766.298523 159.307709,750.733337 
	C157.414093,736.208374 165.174057,719.468872 177.968475,711.884583 
	C201.490646,697.940918 239.472427,701.134216 260.355316,718.732849 
	C262.346771,720.411133 263.006439,721.956421 261.519409,724.260742 
	C258.268341,729.298462 255.041763,734.353760 251.912552,739.467590 
	C250.241837,742.197876 248.592773,741.929993 246.251450,740.195862 
	C237.422287,733.656677 227.753677,729.027954 216.681854,727.715637 
	C208.852661,726.787598 201.339676,727.683044 194.529388,731.815430 
	C187.515869,736.071045 185.530991,743.151672 189.238525,750.565796 
z"/>
<path fill="#000000" opacity="1.000000" stroke="none" 
	d="
M317.910706,842.255371 
	C288.706360,826.349426 274.165771,793.738220 281.160461,760.440674 
	C289.158234,722.368225 321.898956,699.083252 360.557220,703.413757 
	C376.938080,705.248840 390.961670,711.506348 402.944580,722.631470 
	C407.577423,726.932678 407.608551,727.629456 403.286133,732.279907 
	C398.901611,736.997253 394.430115,741.633728 389.890289,746.417725 
	C386.390961,743.401428 383.488434,740.665710 380.351471,738.232239 
	C352.706696,716.786560 314.988373,730.948486 308.463501,765.309204 
	C304.852356,784.325745 308.950104,801.165161 324.162933,814.097046 
	C341.730560,829.030579 366.692810,827.767700 384.151611,811.400024 
	C390.324280,805.613220 390.327545,805.609924 396.288483,811.532349 
	C399.243500,814.468262 402.122253,817.484314 405.151947,820.340515 
	C407.235809,822.305115 407.509674,824.011292 405.480286,826.271912 
	C389.276733,844.320618 368.890991,851.590942 345.007965,849.847107 
	C335.608856,849.160706 326.667206,846.698303 317.910706,842.255371 
z"/>
<path fill="#000000" opacity="1.000000" stroke="none" 
	d="
M569.150146,847.218750 
	C563.906677,847.916260 562.766235,845.561096 562.778625,841.164612 
	C562.900085,798.057190 562.923157,754.949097 562.778809,711.841858 
	C562.762817,707.068970 564.181458,705.299194 569.025635,705.603271 
	C574.661499,705.956909 580.345398,705.832153 585.993958,705.584290 
	C589.202148,705.443481 590.391113,706.337769 590.382996,709.719238 
	C590.277283,753.825378 590.257080,797.931824 590.335266,842.037964 
	C590.342163,845.940247 589.003723,847.421387 585.105896,847.255920 
	C579.955872,847.037292 574.789001,847.212891 569.150146,847.218750 
z"/>
<path fill="#000000" opacity="1.000000" stroke="none" 
	d="
M609.335938,642.512268 
	C589.509277,649.678772 569.650452,654.977356 548.906128,656.422363 
	C545.823303,656.637085 543.077515,656.313171 542.680298,652.459900 
	C542.291565,648.689819 544.275024,647.052612 547.890625,646.691101 
	C588.562561,642.624023 625.162476,627.734497 658.652100,604.733459 
	C664.957031,600.403198 670.931335,595.592896 677.094116,591.052917 
	C678.286438,590.174561 679.563049,589.257202 680.946716,588.825989 
	C683.421692,588.054626 686.064270,587.918762 687.638123,590.510315 
	C689.295044,593.238586 687.629578,595.347595 685.636292,596.988953 
	C681.142700,600.689270 676.598755,604.338074 671.937561,607.823547 
	C652.763733,622.161133 631.897644,633.471313 609.335938,642.512268 
z"/>
<path fill="#000000" opacity="1.000000" stroke="none" 
	d="
M379.513794,602.460327 
	C406.963409,622.441956 436.902863,636.046326 469.798248,642.953918 
	C477.269440,644.522705 484.865051,645.543457 492.437042,646.567871 
	C495.911621,647.037964 499.089111,647.963074 498.857330,651.956360 
	C498.594971,656.476013 494.922272,656.674255 491.377777,656.324158 
	C470.911194,654.302490 451.074249,649.519958 431.860229,642.272705 
	C406.417053,632.675964 383.213989,619.120972 362.090576,602.003296 
	C361.058044,601.166565 359.957825,600.362915 359.111938,599.356567 
	C357.162262,597.036926 356.893280,594.406860 358.941895,592.114136 
	C360.966583,589.848206 363.492157,590.363403 365.697906,591.989502 
	C370.252350,595.347168 374.718536,598.824463 379.513794,602.460327 
z"/>
<path fill="#000000" opacity="1.000000" stroke="none" 
	d="
M288.913513,487.185944 
	C294.109985,501.169983 300.853088,513.966125 308.089752,526.523743 
	C309.000275,528.103760 309.957733,529.705750 310.533661,531.418518 
	C311.493347,534.272705 310.609314,536.791870 308.009827,538.284058 
	C305.199524,539.897339 303.177246,538.218567 301.801056,535.921387 
	C298.297058,530.072327 294.759857,524.230896 291.558350,518.214905 
	C277.891876,492.533783 269.652405,465.133179 265.950592,436.323486 
	C265.485016,432.700195 265.794922,429.344910 270.260834,428.801971 
	C274.807220,428.249237 275.825684,431.621826 276.180908,435.155151 
	C277.971893,452.968781 282.506958,470.105774 288.913513,487.185944 
z"/>
<path fill="#000000" opacity="1.000000" stroke="none" 
	d="
M628.899780,187.169998 
	C615.565430,180.553009 602.076721,175.358612 588.152039,171.282822 
	C586.716309,170.862610 585.235168,170.521133 583.884521,169.903702 
	C581.498108,168.812790 580.355103,166.849335 580.851379,164.228683 
	C581.382751,161.422318 583.451843,160.505508 586.042358,160.661819 
	C590.589417,160.936203 594.756775,162.788788 599.012695,164.139832 
	C626.082886,172.733505 650.857483,185.775314 673.393372,203.053375 
	C675.094299,204.357483 676.705261,205.851532 678.078552,207.491318 
	C679.655518,209.374100 679.528259,211.537231 677.983826,213.449234 
	C676.403076,215.406097 674.303650,215.769485 672.170349,214.562195 
	C670.153809,213.420929 668.241577,212.062668 666.403076,210.644775 
	C654.766296,201.670105 642.340637,193.962189 628.899780,187.169998 
z"/>
<path fill="#000000" opacity="1.000000" stroke="none" 
	d="
M574.226196,500.227264 
	C568.939453,503.130249 564.028076,505.935089 559.513611,509.384491 
	C555.226562,512.660156 550.899109,515.883057 546.202271,519.420715 
	C544.774353,515.172607 546.856445,512.711426 548.867859,510.394684 
	C554.044556,504.432068 560.229492,499.622040 566.997009,495.630890 
	C587.560242,483.503754 609.913208,476.982330 633.591614,474.740997 
	C640.719971,474.066254 647.855774,473.540558 655.026672,473.805237 
	C658.731018,473.941986 662.409912,474.365845 662.338745,479.240845 
	C662.268982,484.023468 658.454163,484.013397 655.095093,484.034210 
	C634.204407,484.163605 613.591858,486.231537 593.526733,492.426025 
	C586.984436,494.445648 580.714905,497.104797 574.226196,500.227264 
z"/>
<path fill="#000000" opacity="1.000000" stroke="none" 
	d="
M821.097656,904.615356 
	C820.936462,903.308594 821.322754,902.205444 819.695129,901.200500 
	C818.097900,903.573547 816.512939,906.013489 814.841553,908.392700 
	C812.004333,912.431274 811.226440,912.435303 808.502380,908.471436 
	C806.822693,906.026978 805.201965,903.542053 803.006409,900.254333 
	C801.880371,905.720032 802.361816,910.287109 802.308350,914.798645 
	C802.270996,917.948853 802.007202,920.285522 797.851440,920.318787 
	C793.548218,920.353271 792.966980,918.033264 792.992004,914.599426 
	C793.056213,905.773499 792.946533,896.946472 792.971069,888.120056 
	C792.977295,885.883911 792.264465,882.947144 795.416931,882.354919 
	C798.620117,881.753174 802.014893,881.280762 804.277893,884.947449 
	C806.436829,888.445435 808.325989,892.184387 811.498779,895.225464 
	C815.134460,893.042847 816.302368,889.201172 818.378235,886.115845 
	C819.867554,883.902283 821.419861,882.380737 824.257690,882.140564 
	C828.314636,881.797180 830.508423,882.773438 830.375671,887.486694 
	C830.113037,896.806091 830.201538,906.138672 830.316833,915.463745 
	C830.358093,918.797241 829.260132,920.333313 825.727600,920.318359 
	C822.222900,920.303589 820.979553,918.800659 821.116089,915.453369 
	C821.258118,911.971375 821.118469,908.477844 821.097656,904.615356 
z"/>
<path fill="#000000" opacity="1.000000" stroke="none" 
	d="
M234.444595,918.932983 
	C226.880219,921.186157 219.525146,920.009216 212.240982,920.175720 
	C209.594025,920.236267 208.947540,918.420105 208.947083,916.169250 
	C208.945053,906.356384 208.960129,896.543396 208.913467,886.730713 
	C208.899551,883.802795 210.191589,882.527954 213.147232,882.588562 
	C218.300949,882.694458 223.464905,882.463318 228.612427,882.672241 
	C236.873199,883.007568 241.170624,889.701965 237.905701,897.302673 
	C236.988617,899.437622 237.009277,900.693298 238.427917,902.585388 
	C243.064743,908.769531 241.657608,914.580078 234.444595,918.932983 
M224.381744,905.220093 
	C223.390030,905.243958 222.398026,905.259583 221.406647,905.293213 
	C219.081619,905.372253 218.284622,906.724060 218.313782,908.883484 
	C218.343201,911.061401 219.592072,911.766602 221.514267,911.721802 
	C223.825165,911.667847 226.161285,911.753113 228.436157,911.427063 
	C229.956421,911.209045 231.195862,910.121155 231.137573,908.355103 
	C231.087677,906.843323 229.975479,905.970703 228.642456,905.608154 
	C227.545349,905.309692 226.359085,905.339050 224.381744,905.220093 
M218.628174,892.679749 
	C218.296204,894.777344 218.875809,896.479797 221.198425,896.643616 
	C223.769394,896.824951 226.698959,897.696838 228.717056,895.389954 
	C230.360336,893.511597 229.415253,891.781006 227.164093,891.394043 
	C224.450821,890.927673 221.592575,890.319214 218.628174,892.679749 
z"/>
<path fill="#000000" opacity="1.000000" stroke="none" 
	d="
M460.890625,883.906738 
	C461.099579,894.453552 461.188629,904.608398 461.186981,914.763306 
	C461.186676,916.817993 461.803101,919.447632 458.796448,920.043213 
	C456.151947,920.567017 453.446136,920.667114 451.537781,918.089417 
	C448.070648,913.406189 444.591034,908.732178 441.102386,904.064941 
	C440.516174,903.280701 439.998291,902.378052 438.208466,902.150269 
	C436.386322,906.440674 437.468079,911.087524 437.374908,915.540039 
	C437.303589,918.949158 436.092224,920.299988 432.652985,920.301331 
	C429.289093,920.302551 427.776215,919.103149 427.807098,915.641479 
	C427.888824,906.482971 427.758118,897.322510 427.825958,888.163696 
	C427.842010,885.999695 426.941681,883.161011 430.260620,882.429443 
	C433.287689,881.762268 436.212463,881.743225 438.348694,884.684021 
	C441.381927,888.859558 444.493256,892.979187 447.623413,897.083008 
	C448.593506,898.354858 449.186432,900.044006 451.734894,900.741821 
	C451.734894,896.614563 451.715607,892.703125 451.739166,888.791931 
	C451.779846,882.037231 454.016113,880.733154 460.890625,883.906738 
z"/>
<path fill="#000000" opacity="1.000000" stroke="none" 
	d="
M773.418823,916.739624 
	C772.358032,915.188171 771.517639,913.950073 770.665527,912.720032 
	C769.347900,910.818115 768.203491,908.410461 765.283386,909.286255 
	C762.371948,910.159363 763.188293,912.857117 763.353760,914.806641 
	C763.743347,919.395752 761.646545,920.716736 757.450134,920.273499 
	C754.994446,920.014160 753.834656,918.887878 753.829956,916.478516 
	C753.810120,906.335754 753.812012,896.192932 753.761963,886.050354 
	C753.748352,883.289429 755.186035,882.076111 757.766907,882.135986 
	C763.246826,882.262939 768.771667,882.094666 774.192749,882.751709 
	C783.799133,883.915955 788.622559,894.809082 782.377563,902.312012 
	C778.601501,906.848694 779.017761,909.812683 782.312744,913.741272 
	C783.537598,915.201721 784.903442,916.809937 784.824219,919.533203 
	C780.727051,920.338013 776.619446,921.920593 773.418823,916.739624 
M767.674561,891.215515 
	C765.504333,891.212585 763.666016,891.771423 763.432373,894.306885 
	C763.270874,896.059937 762.577637,898.381775 764.396973,899.316772 
	C767.110535,900.711548 770.194702,900.363525 772.953674,899.047668 
	C774.631958,898.247192 775.040771,896.540283 774.627686,894.796387 
	C773.850098,891.513855 771.307373,891.087830 767.674561,891.215515 
z"/>
<path fill="#000000" opacity="1.000000" stroke="none" 
	d="
M744.828979,893.588257 
	C747.529724,902.033081 746.733582,909.478882 740.270996,915.478210 
	C734.379089,920.947632 727.292725,922.009644 719.845398,919.505432 
	C711.693542,916.764343 706.292969,908.263794 707.075439,900.163818 
	C707.990173,890.693726 714.304260,883.704590 723.528809,881.951233 
	C732.263855,880.290955 740.488586,884.675720 744.828979,893.588257 
M735.920532,904.347107 
	C737.377625,897.959534 734.586182,892.746948 728.848694,891.141479 
	C724.333008,889.877869 719.601624,892.522461 717.876709,897.274353 
	C716.042236,902.328003 718.493347,908.802734 723.033813,910.897095 
	C728.254150,913.305054 732.507629,911.347412 735.920532,904.347107 
z"/>
<path fill="#000000" opacity="1.000000" stroke="none" 
	d="
M307.407959,918.751587 
	C297.424133,922.428833 289.011597,920.762329 283.368134,914.241028 
	C278.073364,908.122681 277.100952,898.950989 280.997162,891.877991 
	C285.003937,884.604370 293.320435,880.553040 301.619232,881.832275 
	C309.433167,883.036743 315.859924,889.075012 317.301575,896.566589 
	C319.202820,906.446350 316.098724,913.595581 307.407959,918.751587 
M298.455231,890.996277 
	C291.911560,891.719849 288.429779,895.210632 288.456299,901.020935 
	C288.483276,906.928650 292.594452,911.509827 298.066803,911.729919 
	C303.086365,911.931824 306.950470,908.391846 307.684418,902.918884 
	C308.509491,896.766541 305.398071,892.376038 298.455231,890.996277 
z"/>
<path fill="#000000" opacity="1.000000" stroke="none" 
	d="
M326.202515,911.510071 
	C322.048981,901.559631 323.421631,892.785828 329.823517,886.767883 
	C335.745148,881.201416 345.225098,879.887634 352.620758,883.839539 
	C354.591339,884.892517 358.056061,885.623779 356.428711,889.047241 
	C354.919342,892.222473 352.656158,894.382080 348.438751,892.319519 
	C344.348907,890.319458 339.820374,889.828125 336.507660,893.761475 
	C333.257202,897.621094 332.745575,902.180298 335.117401,906.838135 
	C337.167542,910.864136 341.868439,912.851196 346.121063,911.510986 
	C347.629211,911.035706 348.969299,910.331604 349.062286,908.543274 
	C349.182098,906.239624 347.337555,906.353577 345.916779,906.381653 
	C342.532928,906.448364 341.674744,904.647156 341.771210,901.632996 
	C341.877441,898.314148 344.035309,898.087891 346.529144,897.919373 
	C359.149323,897.066528 359.147919,897.045898 358.466888,909.475769 
	C358.043335,917.207031 351.103363,921.833862 341.184143,920.762939 
	C334.944244,920.089294 329.638214,917.615784 326.202515,911.510071 
z"/>
<path fill="#000000" opacity="1.000000" stroke="none" 
	d="
M400.304016,911.633911 
	C400.455505,914.352966 399.185760,915.785950 397.459076,916.997192 
	C389.465485,922.603943 377.431396,922.047058 371.042908,915.754089 
	C364.735565,909.541260 363.622314,897.791992 368.634216,890.333679 
	C374.059845,882.259705 384.645325,879.301331 393.888184,883.548889 
	C396.171356,884.598206 400.099213,885.337769 398.247650,889.351685 
	C396.606079,892.910400 393.999878,894.710205 389.828766,892.122314 
	C386.113770,889.817444 382.152222,889.790466 378.806915,893.052856 
	C375.381226,896.393677 374.508636,900.385742 376.215271,904.954285 
	C377.864410,909.369019 380.897278,911.727478 385.649567,911.672302 
	C387.650787,911.649109 390.100220,911.700012 390.476166,909.194763 
	C390.862427,906.620483 388.446564,906.542175 386.669952,906.353882 
	C383.467285,906.014404 383.817596,903.684387 383.776917,901.526550 
	C383.734528,899.278015 384.894073,898.097229 387.084045,898.017517 
	C390.412598,897.896362 393.744415,897.838196 397.075256,897.816528 
	C399.651154,897.799866 400.552155,899.317139 400.486389,901.698914 
	C400.398987,904.862671 400.365723,908.027893 400.304016,911.633911 
z"/>
<path fill="#000000" opacity="1.000000" stroke="none" 
	d="
M472.597351,889.776611 
	C479.848602,881.560547 490.165253,879.373901 498.371887,884.206665 
	C500.354980,885.374451 503.448761,886.374939 501.247223,889.776917 
	C499.556976,892.388733 497.895752,894.672058 494.051941,892.442566 
	C490.029297,890.109436 485.611847,889.993469 482.008087,893.378662 
	C478.342865,896.821716 477.979279,901.236572 479.694946,905.809570 
	C481.450592,910.489075 486.968994,913.089294 491.576050,911.489746 
	C492.843140,911.049866 494.184998,910.516113 494.243103,908.896240 
	C494.307343,907.105896 492.822327,906.625000 491.534424,906.592590 
	C487.958862,906.502502 486.362030,904.962891 486.827911,901.302124 
	C487.327820,897.374023 490.308044,897.889526 492.888275,897.830200 
	C504.017456,897.574158 503.681396,897.612183 504.094147,908.890747 
	C504.306091,914.682312 501.792267,917.383545 496.845856,919.150208 
	C487.909607,922.341858 478.798065,920.525635 473.432831,914.228088 
	C467.729675,907.533752 467.361206,899.083374 472.597351,889.776611 
z"/>
<path fill="#000000" opacity="1.000000" stroke="none" 
	d="
M626.725830,896.386353 
	C629.548950,904.330444 633.817444,911.343689 635.660217,919.278137 
	C628.665100,921.303955 627.425598,921.003235 624.584412,915.316711 
	C622.902832,911.951050 620.184021,912.182922 617.396790,912.330444 
	C614.054688,912.507446 610.306458,911.490784 608.164551,915.537781 
	C605.337402,920.879395 603.696350,921.373840 597.382568,919.277588 
	C596.765625,916.636841 598.402222,914.504883 599.296204,912.283264 
	C602.772034,903.644714 606.497925,895.107178 610.015686,886.485107 
	C611.203491,883.573608 612.852356,881.906982 616.273621,881.873840 
	C619.687866,881.840698 621.443420,883.321777 622.538635,886.368164 
	C623.718628,889.650574 625.207520,892.821899 626.725830,896.386353 
M613.890076,901.695190 
	C614.866638,905.056763 617.028625,903.473328 619.519653,903.150940 
	C618.559814,900.722656 618.399963,898.421448 616.173828,896.990601 
	C614.720276,898.177429 614.345337,899.614746 613.890076,901.695190 
z"/>
<path fill="#000000" opacity="1.000000" stroke="none" 
	d="
M530.541016,883.125610 
	C536.794617,882.285583 542.728210,881.761414 548.684143,882.665649 
	C554.241943,883.509399 558.344788,887.299438 559.233337,892.487549 
	C560.379883,899.182068 557.946289,904.545227 552.484497,907.155151 
	C550.072876,908.307556 547.489197,909.269348 544.828857,909.146912 
	C540.526550,908.948792 538.605835,910.622131 539.164429,914.978333 
	C539.775879,919.747009 537.053467,920.629822 533.090210,920.230835 
	C530.861633,920.006470 529.746765,918.937988 529.784241,916.734314 
	C529.973206,905.624451 529.045105,894.499634 530.541016,883.125610 
M543.478882,900.695923 
	C544.133789,900.658447 544.813293,900.720642 545.439453,900.566467 
	C548.362793,899.846741 550.104736,898.091187 549.694702,894.935059 
	C549.326904,892.104126 547.255920,891.235229 544.701904,891.282166 
	C542.401917,891.324341 539.732056,891.139465 539.457092,894.346924 
	C539.231689,896.976135 538.307312,900.271851 543.478882,900.695923 
z"/>
<path fill="#000000" opacity="1.000000" stroke="none" 
	d="
M694.811523,882.081970 
	C698.053101,882.352539 701.667725,881.020081 701.973633,885.820190 
	C702.188660,889.194641 701.242615,891.329956 697.358582,891.224060 
	C693.866760,891.128906 690.369141,891.247375 686.874084,891.268616 
	C684.731201,891.281616 683.365967,892.115967 683.353210,894.484192 
	C683.340271,896.886353 684.727417,897.652405 686.875183,897.648132 
	C690.037598,897.641724 693.200684,897.718079 696.362366,897.674927 
	C699.268188,897.635254 700.096252,899.292114 700.000122,901.835083 
	C699.912170,904.161377 699.557007,906.228333 696.514648,906.223999 
	C693.518921,906.219727 690.521301,906.344299 687.527771,906.273865 
	C684.651245,906.206238 683.121948,907.316650 683.267883,910.363464 
	C683.347412,912.023499 683.168274,913.696716 683.263306,915.354980 
	C683.447327,918.562378 682.438965,920.326050 678.799255,920.328308 
	C675.235046,920.330566 673.658630,919.130981 673.712769,915.396484 
	C673.850403,905.910828 673.828247,896.420105 673.680298,886.934387 
	C673.626221,883.471252 674.945923,882.207947 678.389038,882.289795 
	C683.702087,882.416077 689.024109,882.167908 694.811523,882.081970 
z"/>
<path fill="#000000" opacity="1.000000" stroke="none" 
	d="
M774.286255,440.111267 
	C771.235046,459.267334 767.619080,477.819489 759.327515,496.314545 
	C753.348389,490.067566 753.999634,483.819672 755.543701,477.817413 
	C758.269470,467.221436 761.489197,456.753113 763.101257,445.896606 
	C763.660645,442.129761 764.291077,438.368134 764.677917,434.582550 
	C765.051453,430.927063 766.544983,428.342957 770.538330,428.769531 
	C774.604492,429.203827 775.436340,432.148712 774.866760,435.734924 
	C774.658752,437.044464 774.494446,438.360992 774.286255,440.111267 
z"/>
<path fill="#000000" opacity="1.000000" stroke="none" 
	d="
M759.638184,350.262024 
	C758.098755,344.228729 756.610168,338.609894 755.151794,332.983215 
	C754.294006,329.674042 755.655579,327.354126 758.730896,326.293213 
	C761.918457,325.193604 764.008301,327.043213 764.819641,329.855438 
	C769.471985,345.981964 773.384521,362.265289 774.334473,379.113770 
	C774.477966,381.658386 773.785095,383.772949 771.256775,384.798523 
	C769.140503,385.656891 767.359619,384.837982 765.858826,383.305542 
	C764.861633,382.287292 764.838745,380.927521 764.589844,379.614502 
	C762.767334,369.999512 762.385376,360.141235 759.638184,350.262024 
z"/>
<path fill="#000000" opacity="1.000000" stroke="none" 
	d="
M617.023804,459.036865 
	C610.485413,460.658630 604.363586,462.193542 598.239624,463.720093 
	C596.401978,464.178131 594.121277,465.667908 593.079773,462.995941 
	C592.198669,460.735352 594.234802,459.318115 595.931091,458.287781 
	C601.093506,455.152130 606.797058,453.245605 612.575195,451.694397 
	C625.325806,448.271393 638.308655,446.439972 651.543701,446.950928 
	C653.674744,447.033203 655.839844,447.486908 657.887146,448.106232 
	C659.691589,448.652130 661.200317,449.860687 661.079834,452.055267 
	C660.963013,454.181976 659.478333,455.446503 657.621521,455.814026 
	C655.363403,456.260925 653.000122,456.403625 650.692566,456.334717 
	C639.508057,456.000824 628.431580,456.900909 617.023804,459.036865 
z"/>
<path fill="#000000" opacity="1.000000" stroke="none" 
	d="
M642.665405,891.234009 
	C638.651062,891.377686 635.392029,891.290955 635.811218,886.170288 
	C636.029724,883.500671 637.179565,882.169556 639.807190,882.157654 
	C647.625732,882.122192 655.444336,882.108215 663.262939,882.105286 
	C666.215881,882.104187 667.279663,883.679321 667.290039,886.548584 
	C667.301147,889.614624 666.243774,891.498901 662.985962,891.141724 
	C657.485779,890.538879 656.025818,893.315613 656.246521,898.241577 
	C656.484497,903.554749 656.203125,908.889099 656.313904,914.210876 
	C656.386719,917.706543 656.185791,920.360413 651.441467,920.325989 
	C646.531921,920.290344 646.762329,917.288208 646.772522,913.988220 
	C646.791077,907.998962 646.729553,902.009338 646.702942,896.019897 
	C646.691895,893.528931 646.439636,891.223145 642.665405,891.234009 
z"/>
<path fill="#000000" opacity="1.000000" stroke="none" 
	d="
M566.550964,905.654419 
	C566.535522,899.056030 566.685181,892.894287 566.464478,886.745728 
	C566.350647,883.574097 567.349121,882.142822 570.604797,882.044800 
	C574.009277,881.942383 576.029236,882.888794 575.965454,886.739502 
	C575.863525,892.895264 576.153687,899.061951 575.910522,905.209473 
	C575.725098,909.898865 577.441589,912.062012 582.252747,911.647217 
	C584.398804,911.462158 586.583801,911.763000 588.738281,911.631836 
	C591.857727,911.441956 593.295776,912.601440 593.312622,915.897766 
	C593.329468,919.194092 591.872498,920.311218 588.776489,920.261292 
	C582.786560,920.164673 576.793152,920.169800 570.802917,920.255188 
	C567.845581,920.297363 566.543945,919.032104 566.606689,916.081482 
	C566.677368,912.755005 566.584412,909.424988 566.550964,905.654419 
z"/>
<path fill="#000000" opacity="1.000000" stroke="none" 
	d="
M264.961914,920.252441 
	C260.316681,920.238281 256.162170,920.190979 252.008423,920.228455 
	C249.575562,920.250427 248.334229,919.303040 248.326996,916.708313 
	C248.299225,906.746582 248.248184,896.783752 248.056595,886.824280 
	C247.989639,883.342468 249.554199,882.161987 252.848358,882.099121 
	C256.376343,882.031799 257.466644,883.609436 257.392578,886.942261 
	C257.244995,893.585266 257.476776,900.236633 257.335205,906.879883 
	C257.263245,910.255920 258.478210,911.818787 261.957214,911.651550 
	C264.940948,911.508179 267.942291,911.740906 270.927307,911.611389 
	C274.257751,911.466858 275.236816,913.137695 275.226105,916.185547 
	C275.215424,919.224731 273.796936,920.370300 270.935974,920.266846 
	C269.110535,920.200806 267.280762,920.254822 264.961914,920.252441 
z"/>
<path fill="#000000" opacity="1.000000" stroke="none" 
	d="
M418.332214,902.998779 
	C418.309448,907.811157 418.224701,912.124878 418.283203,916.436584 
	C418.326233,919.604675 416.543365,920.318909 413.818237,920.296143 
	C411.066101,920.273193 408.824432,919.958313 408.835693,916.395996 
	C408.867676,906.277466 408.838867,896.158630 408.797455,886.040039 
	C408.782898,882.478455 411.119720,882.135864 413.833191,882.169739 
	C416.452576,882.202454 418.355316,882.856506 418.306000,886.078064 
	C418.222168,891.550354 418.313751,897.025391 418.332214,902.998779 
z"/>
<path fill="#000000" opacity="1.000000" stroke="none" 
	d="
M780.140137,405.314453 
	C779.582458,412.281799 776.156494,415.760895 770.727600,415.338470 
	C765.787292,414.954071 762.138855,410.382050 762.772583,405.216766 
	C763.275269,401.119659 765.683105,398.607635 769.699585,397.825562 
	C774.402832,396.909821 777.605591,399.170227 780.140137,405.314453 
z"/>
<path fill="#000000" opacity="1.000000" stroke="none" 
	d="
M269.000427,397.785217 
	C275.508423,399.283051 278.710632,403.219910 277.804199,408.113281 
	C276.934540,412.808105 273.290314,415.633820 268.513062,415.317566 
	C264.208435,415.032593 260.767670,411.625763 260.384552,407.269196 
	C259.962311,402.467377 262.663300,399.349487 269.000427,397.785217 
z"/>
<path fill="#000000" opacity="1.000000" stroke="none" 
	d="
M361.920349,178.357330 
	C363.636261,174.446899 366.316437,172.843140 370.017761,174.301208 
	C372.951874,175.457077 374.294312,177.967712 373.487244,181.135529 
	C372.692596,184.254822 370.414764,185.972321 367.252258,185.620255 
	C363.378479,185.189011 361.463318,182.765106 361.920349,178.357330 
z"/>
<path fill="#000000" opacity="1.000000" stroke="none" 
	d="
M303.737976,249.260345 
	C302.287384,251.844803 300.431641,253.152039 297.818024,252.604080 
	C295.497253,252.117523 294.195618,250.394836 293.507996,248.183868 
	C292.408691,244.649368 294.184784,240.897079 297.506500,240.292603 
	C301.469604,239.571426 303.322845,242.022110 304.100159,245.452606 
	C304.344269,246.529953 303.985748,247.743835 303.737976,249.260345 
z"/>
<path fill="#000000" opacity="1.000000" stroke="none" 
	d="
M434.458923,213.913666 
	C436.054779,207.957413 440.623383,205.959122 444.243134,209.313232 
	C446.270966,211.192322 446.850739,213.568680 445.814117,216.136459 
	C444.931732,218.322113 443.224030,219.599152 440.772461,219.489426 
	C437.398376,219.338425 435.110046,217.782272 434.458923,213.913666 
z"/>
<path fill="#000000" opacity="1.000000" stroke="none" 
	d="
M605.157715,604.920959 
	C606.854858,608.001953 606.359131,610.463745 604.072083,612.427551 
	C602.231262,614.008179 600.082092,614.847351 597.640747,613.627319 
	C595.504822,612.559875 594.395142,610.776306 594.373108,608.438477 
	C594.352966,606.304993 595.272095,604.471863 597.199158,603.499878 
	C599.947021,602.113831 602.641724,602.153381 605.157715,604.920959 
z"/>
<path fill="#000000" opacity="1.000000" stroke="none" 
	d="
M617.208740,596.468079 
	C617.815796,595.431396 618.164856,594.590942 618.791931,594.122864 
	C621.501465,592.100342 624.441956,591.247681 627.519348,593.277161 
	C629.631042,594.669800 630.033875,596.812744 629.029785,598.981384 
	C627.664062,601.931030 625.291504,603.818909 621.905029,603.189819 
	C618.596252,602.575317 616.666138,600.488403 617.208740,596.468079 
z"/>
<path fill="#000000" opacity="1.000000" stroke="none" 
	d="
M421.260345,593.704468 
	C424.312775,597.343445 423.503784,600.203064 419.997345,602.256592 
	C416.661804,604.209961 413.852722,602.850342 411.773407,599.992493 
	C410.379242,598.076294 410.203613,595.826050 411.936707,594.016724 
	C414.683594,591.148865 417.800537,591.309143 421.260345,593.704468 
z"/>
<path fill="#000000" opacity="1.000000" stroke="none" 
	d="
M301.576782,401.036621 
	C306.639069,404.267914 307.484070,407.665985 304.236938,410.559265 
	C302.040161,412.516663 299.521515,412.882629 296.958252,411.373779 
	C294.808441,410.108307 293.497925,408.113586 294.137390,405.594788 
	C295.034058,402.063080 297.556122,400.546539 301.576782,401.036621 
z"/>
<path fill="#000000" opacity="1.000000" stroke="none" 
	d="
M443.088745,603.497681 
	C446.689606,607.775879 446.739075,610.771484 443.577545,612.985107 
	C440.833069,614.906738 436.841248,613.959900 434.969513,610.934509 
	C433.710602,608.899658 433.619263,606.816467 435.144104,604.934570 
	C437.188812,602.411133 439.850372,602.156372 443.088745,603.497681 
z"/>
<path fill="#000000" opacity="1.000000" stroke="none" 
	d="
M579.083984,621.463013 
	C575.769043,622.836731 573.196289,622.258850 571.281128,619.698669 
	C570.044067,618.044983 569.573120,616.119751 570.591614,614.129639 
	C571.770752,611.825562 573.812561,610.882751 576.278320,610.929565 
	C578.604431,610.973633 580.367065,612.098022 581.312012,614.281494 
	C582.525452,617.085205 581.810974,619.405334 579.083984,621.463013 
z"/>
<path fill="#000000" opacity="1.000000" stroke="none" 
	d="
M303.184937,452.019043 
	C305.978424,450.186554 308.313171,450.573975 310.092224,452.751770 
	C312.019897,455.111511 312.206573,457.940125 310.835724,460.636322 
	C309.652893,462.962708 307.516479,463.987518 305.030060,462.992493 
	C302.095306,461.818146 301.034027,459.223938 301.065918,456.214935 
	C301.082001,454.694214 301.796875,453.367004 303.184937,452.019043 
z"/>
<path fill="#000000" opacity="1.000000" stroke="none" 
	d="
M483.241516,156.884735 
	C485.056519,161.032623 484.303558,164.142380 480.350922,165.750275 
	C477.217468,167.024918 474.933624,165.475983 473.509247,162.618057 
	C472.222015,160.035309 472.846100,157.646744 475.000305,155.982376 
	C477.680481,153.911606 480.494141,154.102493 483.241516,156.884735 
z"/>
<path fill="#000000" opacity="1.000000" stroke="none" 
	d="
M465.656738,622.123779 
	C462.266266,622.550232 459.969543,621.517517 459.034180,618.568054 
	C458.220612,616.002686 458.790802,613.613770 461.128967,611.998962 
	C463.248474,610.535034 465.523438,610.636963 467.645630,611.987122 
	C471.631439,614.523132 470.891357,619.074036 465.656738,622.123779 
z"/>
<path fill="#000000" opacity="1.000000" stroke="none" 
	d="
M296.589294,431.082825 
	C297.200043,427.136780 299.426666,425.374268 302.899567,425.968323 
	C306.211060,426.534760 307.304108,429.193573 307.257141,432.303467 
	C307.214325,435.137573 305.940399,437.192444 302.939941,437.419861 
	C298.785187,437.734650 296.950134,435.304565 296.589294,431.082825 
z"/>
<path fill="#000000" opacity="1.000000" stroke="none" 
	d="
M308.269775,362.506714 
	C304.456360,363.831970 302.843323,361.674286 302.028625,358.964508 
	C301.164246,356.089447 301.607788,353.231812 304.417389,351.450684 
	C306.458344,350.156830 308.664948,350.279083 310.350769,352.093170 
	C312.709167,354.630951 312.703491,357.509033 310.798401,360.322662 
	C310.259735,361.118256 309.355377,361.666260 308.269775,362.506714 
z"/>
<path fill="#000000" opacity="1.000000" stroke="none" 
	d="
M306.720245,383.323669 
	C304.758026,386.472900 302.508087,388.383270 299.170013,386.299835 
	C296.347229,384.537994 296.038940,381.661469 297.238800,378.824982 
	C298.296082,376.325531 300.476898,374.754120 303.223389,375.478210 
	C307.036621,376.483521 307.697998,379.463654 306.720245,383.323669 
z"/>
<path fill="#000000" opacity="1.000000" stroke="none" 
	d="
M562.106079,157.687531 
	C560.542725,154.364868 562.608948,154.811356 564.199097,155.373260 
	C566.603943,156.223038 567.884644,158.233322 567.859314,160.707489 
	C567.830505,163.523163 566.080750,165.034790 563.311462,165.674850 
	C561.414551,163.080688 564.134827,160.207291 562.106079,157.687531 
z"/>
<path fill="#000000" opacity="1.000000" stroke="none" 
	d="
M522.096802,229.257843 
	C523.019348,227.951294 523.552979,226.709106 525.393677,226.035263 
	C525.031494,229.707062 524.732605,232.849304 520.726135,234.053574 
	C519.409424,231.858078 521.172302,230.848633 522.096802,229.257843 
z"/>
<path fill="#000000" opacity="1.000000" stroke="none" 
	d="
M468.564209,272.307129 
	C467.502655,267.482635 471.045288,264.770172 472.736969,261.323303 
	C473.124542,260.533661 474.125214,260.571411 474.954712,260.989044 
	C477.514374,262.277832 479.046509,269.548462 477.074249,272.452789 
	C474.538147,276.187500 471.587494,275.245239 468.564209,272.307129 
z"/>
</svg>